<?xml version="1.0" encoding="UTF-8"?>
<svg id="_экспорт" data-name="экспорт" xmlns="http://www.w3.org/2000/svg" viewBox="0 0 1081 1081">
  <defs>
    <style>
      .cls-1 {
        fill: #fff;
        stroke: #fff;
        stroke-miterlimit: 10;
      }
    </style>
  </defs>
  <rect class="cls-1" x=".5" y=".5" width="1080" height="1080"/>
  <path d="M611.02,584.35c-3.24,35.65-27.55,48.61-48.61,50.23-.84,.06-1.67,.1-2.51,.1-20.08,0-38.26-18.12-44.48-22.78-1.77-1.33-4.37-1.81-7.24-1.81-6.17,0-13.53,2.24-16.11,3.09,1.47-1.09,4.76-5.46,10.39-22.34,8.1-24.31,17.82-29.17,17.82-29.17,1.62,38.89,16.2,55.09,30.85,56.99,1.78,.23,3.55,.36,5.3,.36,12.67,0,24-6.43,25.42-24.94,1.62-21.06-29.17-38.89-29.17-38.89,0,0-13.71-5.57-26.82-17.82-6.72-6.29-13.3-14.34-17.76-24.31-3.74-8.34-6.01-18.05-5.65-29.17,.73-22.6,11.29-34.71,22.72-41.19,7.37-4.18,15.67-6.22,24.03-6.22,5.23,0,10.48,.79,15.56,2.35,7.15,2.17,16.54,4.55,23.58,4.55,12.96,0,22.81-4.68,22.81-4.68l-17.95,45.19s-18.81-33.65-37.85-33.65c-5.33,0-10.66,2.62-15.62,9.35-17.92,24.32,3.6,45.6,13.42,53.47,2.62,2.09,4.41,3.24,4.41,3.24,0,0,14.49,8.28,28.4,21.06,13.61,12.53,26.67,29.36,25.07,46.99Z"/>
  <path d="M871.89,645.91c-38.89-16.2-48.61-51.85-48.61-51.85,0,0-11.26-8.44-.97,53.42,1.62,9.79,.86,19.83-2.27,29.23-2.16,6.43-5.35,12.44-9.48,17.81l-9.97,12.96c-22.9,29.7-63.97,49.23-106,62.04v-74.76s68.74-6.72,75.22-66.68c6.48-59.95-19.2-98.84-41.19-102.89,0,0,44.43-31.6,36.33-81.83-8.1-50.23-35.4-74.54-70.36-71.3v-72.75c64.62,24.74,106.76,63.06,99.52,93.82-9.8,41.71-.13,58.35,5.17,63.97,.66,.71,1.86,.32,1.94-.65,.42-5.67,5.65-21.62,31.77-66.56,29.12-50.07,24.74-70.86,20-78.59-1.3-2.11-4.41-1.99-5.46,.24-4.59,9.61-19.78,30.11-59.9,5.43-26.17-16.11-50.51-34.95-93.04-50.07v-38.16s0-21.71,12.96-23.33,16.2-9.72,16.2-9.72c0,0-42.13-6.48-61.57-34.03-19.44-27.55-43.75-17.82-43.75-17.82,24.31,12.96,33.1,84.91,33.1,84.91l-.03,25.86c-34.95-7.84-79.62-13.42-139.14-15.07-18.44-.52-36.02,.75-52.73,3.45l-.02-14.49s8.8-71.94,33.1-84.91c0,0-24.31-9.72-43.75,17.82s-61.57,34.03-61.57,34.03c0,0,3.24,8.1,16.2,9.72,12.96,1.62,12.96,23.33,12.96,23.33v25.12c-117.56,39.31-182.73,148.78-194.44,180.02-12.12,32.31-47.72,75.8-59.42,89.59-1.78,2.09-1.69,5.43,.29,7.34,13.72,13.35,37.93,63.97,54.49,100.8,28.55,63.57,76.48,116.75,137.58,150.22,18.21,9.98,38.68,19.1,61.49,26.53v3.06c3.24,42.13-34.03,58.33-34.03,58.33,0,0,11.34,0,43.75,42.13,32.41,42.13,48.61,22.68,48.61,22.68-11.34-6.48-14.58-32.71-14.58-32.71v-82.09c26.07,5.17,54.67,8.09,85.88,7.86,39.12-.29,73.86-4.29,104.64-10.78v85.25s-3.24,26.23-14.58,32.71c0,0,16.2,19.44,48.61-22.68,32.41-42.13,43.75-42.13,43.75-42.13,0,0-37.27-16.2-34.03-58.33v-6.38c112.24-36.12,159.77-104.24,174.06-113.76,19.44-12.96,38.89,1.62,38.89,1.62,0,0,3.24-30.79-35.65-46.99Zm-177.3-247.01s36.33,2.33,36.33,44.46-4.62,58.41-36.33,66.48v-110.95Zm0,138.44s39.57,3.24,41.19,63.19c1.54,57.21-21.08,63.26-41.19,68.39v-131.59Zm-278.02,132.32h-30.15v-131.35h30.15v131.35Zm-30.15-157.58v-113.18h30.15v113.18h-30.15Zm-135.12,36.6c-1.25-121.25,65.96-206.82,165.28-247.75v71.13h-82.2c-2.56,0-4.63,2.09-4.63,4.65,0,1.43,.66,2.77,1.78,3.66,4.1,3.21,13.76,12.69,13.76,30.58v85.88l-14.57,22.67c-.63,.99-.97,2.12-.97,3.31,0,1.49,.53,2.92,1.52,4.03,4.18,4.73,15.34,18.96,14.02,34.81-1.62,19.44,0,105.32,0,105.32,0,0-1.51,13.64-16.25,23.33-.96,.63-1.57,1.69-1.57,2.84,0,.92,.37,1.77,.99,2.37,.6,.62,1.44,.99,2.38,.99h85.75v73.74c-156.82-60.97-165.28-221.55-165.28-221.55Zm399.59,231.94c-51.56,10.82-94.97,12.74-94.97,12.74-35.96,.19-67.68-3.37-95.65-9.79l-.1-87.43h45.95s28.7,1.34,44.93,27.06c.02,.03,.05,.08,.06,.11,.02-.03,.05-.08,.06-.11,16.24-25.71,44.93-27.06,44.93-27.06h54.86l-.1,84.48Zm.31-267.58h-80.56c5.67,3.82,13.58,9.58,21.4,16.72,2.79,2.53,5.36,5.06,7.73,7.58h51.41l-.16,132.38c-14.55,.05-41.04,.13-58.2-.06-23.85-.26-40.59,18.39-41.69,19.65-1.1-1.26-17.86-19.91-41.71-19.65-14.05,.16-34.38,.13-49.27,.08l-.16-131.43h52.39c-7.02-8.09-12.35-16.87-15.9-26.23h-36.51l-.15-113.26c14.92-.05,35.45-.08,49.6,.08,23.85,.26,40.61-18.39,41.71-19.65,1.1,1.26,17.84,19.91,41.69,19.65,17.29-.19,44.04-.11,58.53-.06l-.15,114.2Zm.18-140.61h-55.25s-28.7-1.34-44.93-27.06c-.02-.03-.05-.08-.06-.11-.02,.03-.05,.08-.06,.11-16.24,25.71-44.93,27.06-44.93,27.06h-46.34l-.1-85.94c16.93-4.49,34.55-7.83,52.68-9.98,48.55-5.78,96.69-1.3,139.11,9.28l-.1,86.64Z"/>
  <path d="M919.55,525.01c-.68,.05-1.36,.11-2.03,.19-74.86,7.62-92.62,27.95-92.62,27.95-7.37-10.32-40.01-25.34-45.82-27.95-.18-.08-.32-.15-.44-.19,.13-.06,.29-.13,.47-.21,5.91-2.67,38.43-17.65,45.79-27.95,0,0,17.76,20.34,92.62,27.95,.66,.08,1.34,.15,2.03,.21Z"/>
</svg>